<svg xmlns="http://www.w3.org/2000/svg" viewBox="0 0 500 650" xmlns:xlink="http://www.w3.org/1999/xlink" width="500" height="650" font-family="Montserrat">
  <rect x="0" y="0" width="500" height="650" fill="#fd0"></rect>

  <g class="title" text-anchor="middle" font-weight="bold">
    <rect x="0" y="35" width="500" height="40" fill="#000"></rect>
    <text x="259" y="65" font-size="20" fill="#fff">functional programming learning curve</text>
  </g>
  
  <g transform="translate(150,90)" font-family="Ubuntu" font-size="20" fill="#000" text-anchor="middle" font-weight="bold">
    <text x="100" y="30" fill="#c80000">OOP concepts and techniques</text>
    <text x="100" y="60" fill="#000">first easy, then become harder</text>
  </g>
  <g transform="translate(150,170)" font-family="Ubuntu" font-size="20" fill="#000" text-anchor="middle" font-weight="bold">
    <text x="100" y="30" fill="#c80000">FP concepts and techniques</text>
    <text x="100" y="60" fill="#000">first hard, then become easier</text>
  </g>
  
  
  
  <g transform="translate(0,500)" font-family="Ubuntu" font-size="20" fill="#000" text-anchor="middle" font-weight="bold">
      <path fill="none" stroke-dasharray="10" stroke="#000" stroke-width="2" d="M50,50 q300,10 350,-270" marker-start="url(#bullet)" marker-end="url(#arrow)"></path>
      <text x="150" y="-150" fill="#c80000">OOP</text>    
      <path fill="none" stroke-dasharray="10" stroke="#000" stroke-width="2" d="M50,50 q0,-200 400,-260" marker-start="url(#bullet)" marker-end="url(#arrow)"></path>
      <text x="350" y="-30" fill="#c80000">FP</text>    
    <g>
      <path fill="none" stroke="#000" stroke-width="2" d="M50,50 h400" marker-start="url(#bullet)" marker-end="url(#arrow)"></path>
      <text x="250" y="80" >time</text>
    </g>
    <g transform="rotate(-90,50,50)">
      <path fill="none" stroke="#000" stroke-width="2" d="M50,50 h250" marker-start="url(#bullet)" marker-end="url(#arrow)"></path>
      <text x="250" y="30" >grasp</text>
    </g>
  </g>
  
  
  
  <defs>
    <marker id="arrow" markerWidth="10" markerHeight="7" 
            refX="0" refY="3.5" orient="auto">
      <polygon fill="#000" points="0 0, 5 3.5, 0 7" />
    </marker>
    <marker id="bullet" markerWidth="12" markerHeight="12" refX="6" refY="6" >
      <circle fill="#000" cx="6" cy="6" r="2" stroke="context-stroke" stroke-width="2"/>
    </marker>
  </defs>
    <g transform="scale(0.3) translate(1330,1750)">
        <g transform="translate(0,250)" font-family="Ubuntu" font-size="25" fill="#c800c8" text-anchor="middle" font-weight="bold">
          <rect x="0" y="0" width="300" height="40" fill="#000"></rect>
          <text x="150" y="30" fill="#fff"  letter-spacing="3">Functional</text>
        </g>
        <g transform="translate(0,300)" font-family="Ubuntu" font-size="25" fill="#c800c8" text-anchor="middle" font-weight="bold">
          <rect x="0" y="0" width="300" height="40" fill="#000"></rect>
          <text x="150" y="30" fill="#fff"  letter-spacing="3">Programming</text>
        </g>
        <g transform="translate(0,350)" font-family="Ubuntu" font-size="25" fill="#c800c8" text-anchor="middle" font-weight="bold">
          <rect x="0" y="0" width="300" height="40" fill="#000"></rect>
          <text x="150" y="30" fill="#fff"  letter-spacing="3">JavaScript</text>
        </g>
  </g>
  <g font-size="10"  fill="#000" font-weight="bold">
    <text x="10" y="625">jsfun.ir/functional-programming-javascript</text>
    <text x="10" y="645" >functional programming javascript by Shakiba Moshiri, 2019-10-22</text>
  </g>
<!--<path fill="none" stroke="#000" stroke-width="3" d="M60,50 v140" marker-start="url(#bullet)" marker-end="url(#arrow)"></path>-->
</svg>