<svg xmlns="http://www.w3.org/2000/svg" viewBox="0 0 500 650" xmlns:xlink="http://www.w3.org/1999/xlink" width="500" height="650" font-family="Montserrat">
  <rect x="0" y="0" width="500" height="650" fill="#0cf"></rect>

 
  <g id="bad">
    <rect x="10" y="10" width="480" height="300" fill="#fff"></rect>
    <text x="50" y="60" font-size="30"  fill="#000">Cloud</text>
    
    <rect x="280" y="20" width="200" height="30" fill="#000" rx="5"></rect>
    <text x="290" y="40" font-size="20"  fill="#fff">Wrong for learning</text>
    
    <rect x="50" y="100" width="200" height="70" fill="#eee"></rect>
    <text x="100" y="145" font-size="30"  fill="#000">Server</text>
    
    <rect x="50" y="200" width="200" height="70" fill="#eee"></rect>
    <text x="80" y="245" font-size="30"  fill="#000">Database</text>
    
    <rect x="270" y="100" width="200" height="70" fill="#eee"></rect>
    <text x="310" y="145" font-size="30"  fill="#000">Routing</text>
    
    <rect x="270" y="200" width="200" height="70" fill="#eee"></rect>
    <text x="310" y="245" font-size="30"  fill="#000">Docker</text>
<!--    <path d="M100,110 h300" stroke="#000" stroke-width="3" fill="none" marker-start="url(#diamond)" marker-end="url(#diamond)" />-->
  </g>
  
  <g id="good">
    <rect x="10" y="320" width="480" height="220" fill="#fff"></rect>
    <text x="110" y="396" font-size="30"  fill="#000">+ Containerization</text>

    
    <rect x="50" y="420" width="400" height="150" fill="#eee"></rect>
    <text x="110" y="466" font-size="30"  fill="#000">+ Database / Cache</text>
    
    <rect x="100" y="490" width="300" height="110" fill="#ddd"></rect>
    <text x="130" y="536" font-size="30"  fill="#000">+ Route Manger</text>
    
    <rect x="150" y="560" width="200" height="50" fill="#ccc"></rect>
    <text x="200" y="595" font-size="30"  fill="#000">Server</text>
    
    <rect x="290" y="330" width="190" height="30" fill="#000" rx="5"></rect>
    <text x="300" y="350" font-size="20"  fill="#fff">Right for learning</text>
  </g>

  

  <defs>
    <marker id="arrowhead" markerWidth="10" markerHeight="7" 
            refX="0" refY="3.5" orient="auto">
      <polygon points="0 0, 5 3.5, 0 7" />
    </marker>
    <marker id="diamond" markerWidth="12" markerHeight="12" refX="6" refY="6" >
      <circle cx="6" cy="6" r="2" stroke="context-stroke" stroke-width="2"/>
    </marker>
  </defs>

  <text x="10" y="645" font-size="10"  fill="#000" >Designer and Creator: Shakiba Moshiri, 2019-06-08-23:12:26</text>
  <!--
 <path id="circle" fill="none" stroke="none" stroke-width="0" d="M50,250 a200,200 0 1,1 0,0.1"></path>
 <text font-size="60" word-spacing="30">
  <textPath href="#circle">Scalable Vector Graphic for the Web</textPath>
 </text>
-->
</svg>