<svg xmlns="http://www.w3.org/2000/svg" viewBox="0 0 500 650" xmlns:xlink="http://www.w3.org/1999/xlink" width="500" height="650" font-family="Montserrat">
  <rect x="0" y="0" width="500" height="650" fill="#0cf"></rect>

  <rect x="0" y="55" width="500" height="50" fill="#fe0"></rect>
  <text x="250" y="90" font-size="25" text-anchor="middle" fill="#000" >Customers Area</text>

  <g id="cross_functional_team">
    <rect x="100" y="130" fill="#fff" width="300" height="390"  stroke="#000" rx="10" ></rect>
    <text x="0" y="460" font-size="30" transform="rotate(-90,40,430)">Project / Application</text>
    
    <path d="M450,90 v490" stroke="#fe0" stroke-width="10" fill="none" />
    <circle cx="450" cy="200" fill="#fe0" r="40"></circle>
    <text x="430" y="210" font-size="30">UI</text>
    
    <circle cx="450" cy="330" fill="#fe0" r="40"></circle>
    <text x="425" y="340" font-size="30">MS</text>
    <circle cx="450" cy="460" fill="#fe0" r="40"></circle>
    <text x="425" y="470" font-size="30">DB</text>
    
    <path d="M175,490 v-330 l-57,0 v330z" stroke="#000" stroke-width="3" fill="none" marker-start="url(#diamond)" marker-mid="url(#)" marker-end="url(#diamond)" />
    <text x="0" y="510" font-size="20" transform="rotate(-90,40,400)">Cross Functional Team</text>
    
    <path d="M275,490 v-330 l-57,0 v330z" stroke="#000" stroke-width="3" fill="none" marker-start="url(#diamond)" marker-mid="url(#)" marker-end="url(#diamond)" />
    <text x="0" y="610" font-size="20" transform="rotate(-90,40,400)">Cross Functional Team</text>
    
    <path d="M375,490 v-330 l-57,0 v330z" stroke="#000" stroke-width="3" fill="none" marker-start="url(#diamond)" marker-mid="url(#)" marker-end="url(#diamond)" />
    <text x="0" y="710" font-size="20" transform="rotate(-90,40,400)">Cross Functional Team</text>
  </g>
  <rect x="0" y="550" fill="#fe0" width="500" height="50" ></rect>
  <text x="250" y="580" font-size="25" text-anchor="middle">Business Area</text>





  <defs>
    <marker id="arrowhead" markerWidth="10" markerHeight="7" 
            refX="0" refY="3.5" orient="auto">
      <polygon points="0 0, 5 3.5, 0 7" />
    </marker>
    <marker id="diamond" markerWidth="12" markerHeight="12" refX="6" refY="6" >
      <circle cx="6" cy="6" r="2" stroke="context-stroke" stroke-width="2"/>
    </marker>
  </defs>

  <text x="10" y="645" font-size="10"  fill="#000" >Designer and Creator: Shakiba Moshiri, 2019-06-11-22:24:04</text>
  <!--
 <path id="circle" fill="none" stroke="none" stroke-width="0" d="M50,250 a200,200 0 1,1 0,0.1"></path>
 <text font-size="60" word-spacing="30">
  <textPath href="#circle">Scalable Vector Graphic for the Web</textPath>
 </text>
-->
</svg>