<svg xmlns="http://www.w3.org/2000/svg" viewBox="0 0 500 650" xmlns:xlink="http://www.w3.org/1999/xlink" width="500" height="650" font-family="Montserrat">
  <rect x="0" y="0" width="500" height="650" fill="#0cf"></rect>

  <rect x="0" y="5" width="500" height="50" fill="#fe0"></rect>
  <text x="250" y="40" font-size="25" text-anchor="middle" fill="#000" >Distributed Architecture</text>
  <!--  <text x="250" y="90" font-size="18" text-anchor="middle" fill="#000" >Service <tspan fill="#fff">Isolation</tspan> at Server Side => <tspan fill="#fff">Microservice</tspan></text>-->
  <g id="presentation" transform="translate(0,-20)">
    <rect x="100" y="130" width="300" height="100" fill="#fff"></rect>
    <rect x="125" y="140" width="75" height="80" fill="#0cc"></rect>
    <rect x="215" y="140" width="75" height="80" fill="#0cc"></rect>
    <rect x="301" y="140" width="75" height="80" fill="#0cc"></rect>
    <text x="250" y="100" font-size="25" text-anchor="middle">Presentation</text>
    <text x="160" y="190" font-size="25" text-anchor="middle">App1</text>
    <text x="250" y="190" font-size="25" text-anchor="middle">App2</text>
    <text x="340" y="190" font-size="25" text-anchor="middle">App3</text>
    <path d="M100,110 h300" stroke="#000" stroke-width="3" fill="none" marker-start="url(#diamond)" marker-end="url(#diamond)" />
  </g>

  <g id="server_side" transform="translate(0,10)">
    <text x="250" y="230" font-size="25" text-anchor="middle">Functionality and APIs</text>
    <path d="M105,240 h290" stroke="#000" stroke-width="3" fill="none" marker-start="url(#diamond)" marker-end="url(#diamond)" />
    <rect x="100" y="250" width="300" height="200" fill="#fff"></rect>

    <rect x="125" y="260" width="75" height="80" fill="#0cc"></rect>
    <rect x="215" y="260" width="75" height="80" fill="#0cc"></rect>
    <rect x="300" y="260" width="75" height="80" fill="#0cc"></rect>

    <text x="160" y="310" font-size="25" text-anchor="middle">API.1</text>
    <text x="250" y="310" font-size="25" text-anchor="middle">API.2</text>
    <text x="335" y="310" font-size="25" text-anchor="middle">API.3</text>

    <rect x="125" y="350" width="75" height="80" fill="#0cc"></rect>
    <rect x="213" y="350" width="75" height="80" fill="#0cc"></rect>
    <rect x="300" y="350" width="75" height="80" fill="#0cc"></rect>

    <rect x="100" y="470" width="90" height="60" fill="#fff"></rect>
    <text x="145" y="510" font-size="25" text-anchor="middle">DB</text>
    <rect x="205" y="470" width="90" height="60" fill="#fff"></rect>
    <text x="250" y="510" font-size="25" text-anchor="middle">DB</text>
    <rect x="310" y="470" width="90" height="60" fill="#fff"></rect>
    <text x="355" y="510" font-size="25" text-anchor="middle">DB</text>

    <text x="160" y="370" font-size="15" text-anchor="middle">Service A</text>
    <path d="M160,390 v70" stroke="#000" stroke-width="3" fill="none"  marker-end="url(#arrowhead)" />
    <path d="M160,390 h90" stroke="#fff" stroke-width="3" fill="none" marker-start="url(#diamond)" marker-end="url(#diamond)" />
    <text x="250" y="370" font-size="15" text-anchor="middle">Service B</text>
    <path d="M250,390 v70" stroke="#000" stroke-width="3" fill="none"  marker-end="url(#arrowhead)" />
    <path d="M250,390 h90" stroke="#fff" stroke-width="3" fill="none" marker-start="url(#diamond)" marker-end="url(#diamond)" />
    <text x="340" y="370" font-size="15" text-anchor="middle">Service C</text>
    <path d="M340,390 v70" stroke="#000" stroke-width="3" fill="none"  marker-end="url(#arrowhead)" />

    <text x="250" y="569" font-size="20" text-anchor="middle">Mulit Database / Storage</text>
    <path d="M100,540 h300" stroke="#000" stroke-width="3" fill="none" marker-start="url(#diamond)" marker-end="url(#diamond)" />
  </g>
  <rect x="0" y="590" fill="#fe0" width="500" height="40" ></rect>
  <text x="250" y="620" font-size="30" text-anchor="middle">Micro Front-end Model</text>

<!--  <path d="M75,230 v-100" stroke="#000" stroke-width="3" fill="none" marker-start="url(#diamond)" marker-end="url(#diamond)" />-->
<!--  <text x="60" y="240" font-size="20" transform="rotate(-90,50,240)">Client Side</text>-->
  <path d="M75,450 v-330 l-57,0 v330z" stroke="#000" stroke-width="3" fill="none" marker-start="url(#diamond)" marker-mid="url(#)" marker-end="url(#diamond)" />
  <text x="20" y="430" font-size="20" transform="rotate(-90,20,400)">Cross Functional Team</text>

  <circle cx="450" cy="500" r="30" fill="#fff"></circle>
  <text x="445" y="510" font-size="30"  fill="#000">1</text>
  <circle cx="450" cy="300" r="30" fill="#fff"></circle>
  <text x="445" y="310" font-size="30"  fill="#000">2</text>
  <circle cx="450" cy="180" r="30" fill="#fff"></circle>
  <text x="445" y="190" font-size="30"  fill="#000">3</text>

  <defs>
    <marker id="arrowhead" markerWidth="10" markerHeight="7" 
            refX="0" refY="3.5" orient="auto">
      <polygon points="0 0, 5 3.5, 0 7" />
    </marker>
    <marker id="diamond" markerWidth="12" markerHeight="12" refX="6" refY="6" >
      <circle cx="6" cy="6" r="2" stroke="context-stroke" stroke-width="2"/>
    </marker>
  </defs>

  <text x="10" y="645" font-size="10"  fill="#000" >Designer and Creator: Shakiba Moshiri, 2019-06-05-23:03:33</text>
  <!--
 <path id="circle" fill="none" stroke="none" stroke-width="0" d="M50,250 a200,200 0 1,1 0,0.1"></path>
 <text font-size="60" word-spacing="30">
  <textPath href="#circle">Scalable Vector Graphic for the Web</textPath>
 </text>
-->
</svg>