<svg xmlns="http://www.w3.org/2000/svg" viewBox="0 0 500 650" xmlns:xlink="http://www.w3.org/1999/xlink" width="500" height="650" font-family="Montserrat">
  <rect x="0" y="0" width="500" height="650" fill="#0cf"></rect>

 
  <g id="agile">
    <rect x="10" y="10" width="480" height="45" fill="#fe0"></rect>
    <text x="90" y="40" font-size="25"  fill="#000">Agile Incremental Design</text>
    
    <rect x="10" y="70" width="150" height="50" fill="#fff"></rect>
    <text x="25" y="105" font-size="25"  fill="#000">Customer</text>
    
    <rect x="170" y="70" width="150" height="50" fill="#fff"></rect>
    <text x="215" y="105" font-size="25"  fill="#000">Story</text>
    
    <rect x="330" y="70" width="160" height="50" fill="#fff"></rect>
    <text x="335" y="105" font-size="25"  fill="#000">Technology</text>
    <path d="M70,135 l180,0 h160 l0,30" stroke="#000" stroke-width="3" fill="none" marker-start="url(#diamond)" marker-mid="url(#diamond)" marker-end="url(#arrowhead)" />
  </g>
  
  <g id="stack_design">
    <rect x="10" y="190" width="480" height="45" fill="#fe0"></rect>
    <text x="130" y="220" font-size="25"  fill="#000">Stack Design / Need</text>
    
    <rect x="10" y="250" width="160" height="50" fill="#fff"></rect>
    <text x="65" y="285" font-size="25"  fill="#000">VPS</text>
    
    <rect x="290" y="250" width="200" height="50" fill="#fff"></rect>
    <text x="305" y="285" font-size="25"  fill="#000">Full JavaScript</text>
    
    <path d="M390,315 l0,30" stroke="#000" stroke-width="3" fill="none" marker-start="url(#diamond)" marker-mid="url(#diamond)" marker-end="url(#arrowhead)" />
  </g>
  
  <g id="implementation_stack">
    <rect x="10" y="370" width="480" height="45" fill="#fe0"></rect>
    <text x="130" y="400" font-size="25"  fill="#000">Implementation Stack</text>
    
    <rect x="10" y="430" width="200" height="50" fill="#fff"></rect>
    <text x="50" y="465" font-size="25"  fill="#000">Back End</text>
    
    <rect x="290" y="430" width="200" height="50" fill="#fff"></rect>
    <text x="330" y="465" font-size="25"  fill="#000">Front End</text>
    <path d="M110,495 l0,30" stroke="#000" stroke-width="3" fill="none" marker-start="url(#diamond)" marker-mid="url(#diamond)" marker-end="url(#arrowhead)" />
    
    <rect x="10" y="550" width="160" height="40" fill="#0f0"></rect>
    <text x="60" y="575" font-size="20"  fill="#000">Sever</text>
    
    <rect x="180" y="550" width="150" height="40" fill="#f80"></rect>
    <text x="210" y="575" font-size="20"  fill="#000">Routing</text>
    
    <rect x="340" y="550" width="150" height="40" fill="#fff"></rect>
    <text x="370" y="575" font-size="20"  fill="#000">Database</text>
    <path d="M70,605 l180,0 l160,0" stroke="#000" stroke-width="3" stroke-dasharray="10" fill="none" marker-start="url(#diamond)" marker-mid="url(#diamond)" marker-end="url(#arrowhead)" />
  </g>
  
  

  <defs>
    <marker id="arrowhead" markerWidth="10" markerHeight="7" 
            refX="0" refY="3.5" orient="auto">
      <polygon points="0 0, 5 3.5, 0 7" />
    </marker>
    <marker id="diamond" markerWidth="12" markerHeight="12" refX="6" refY="6" >
      <circle cx="6" cy="6" r="2" stroke="context-stroke" stroke-width="2"/>
    </marker>
  </defs>

  <text x="10" y="645" font-size="10"  fill="#000" >Designer and Creator: Shakiba Moshiri, 2019-06-09-22:40:50</text>
  <!--
 <path id="circle" fill="none" stroke="none" stroke-width="0" d="M50,250 a200,200 0 1,1 0,0.1"></path>
 <text font-size="60" word-spacing="30">
  <textPath href="#circle">Scalable Vector Graphic for the Web</textPath>
 </text>
-->
</svg>