<svg xmlns="http://www.w3.org/2000/svg" viewBox="0 0 500 650" xmlns:xlink="http://www.w3.org/1999/xlink" width="500" height="650" font-family="Montserrat">
  <rect x="0" y="0" width="500" height="650" fill="#000"></rect>

  <g class="title">
    <rect x="0" y="35" width="500" height="40" fill="#fe0"></rect>
    <text x="250" y="65" font-size="25" text-anchor="middle" fill="#000" style="font-weight: bold">Modern Team Guideline</text>
  </g>

  <g transform="translate(175,120)">
    <rect x="-5" y="0" width="75" height="75" fill="#0f8"></rect>
    <rect x="80" y="0" width="75" height="75" fill="#0f8"></rect>
    <rect x="-5" y="85" width="75" height="75" fill="#0f8"></rect>
    <rect x="80" y="85" width="75" height="75" fill="#0f8"></rect>
    <text x="75" y="-10" font-size="20" fill="#fff" text-anchor="middle" font-weight="bold">Decentralized Governance</text>
<!--    <rect x="0" y="0" width="150" height="150" fill="#f00"></rect>-->
<!--    <path fill="none" stroke="#fff" stroke-width="3" d="M100,0 a50,50 0 0,1 100,0 a50,50 0 0,0 100,0 a50,50 0 0,1 100,0" marker-start="url(#diamond)"  marker-end="url(#arrowhead)"></path>-->
  </g>
  
  <g transform="translate(0,320)">
    <text x="250" y="30" font-size="35" fill="#fff" text-anchor="middle" font-weight="bold">Prefer guidance</text>
    <text x="250" y="80" font-size="35" fill="#fff" text-anchor="middle" font-weight="bold">to governance</text>
  </g>
  
  <g transform="translate(175,450)">
    <rect x="0" y="0" width="150" height="150" fill="#f00"></rect>
    <text x="75" y="175" font-size="20" fill="#fff" text-anchor="middle" font-weight="bold">Centralized Governance</text>
  </g>
  <defs>
    <marker id="arrowhead" markerWidth="10" markerHeight="7" 
            refX="0" refY="3.5" orient="auto">
      <polygon fill="#fff" points="0 0, 5 3.5, 0 7" />
    </marker>
    <marker id="diamond" markerWidth="12" markerHeight="12" refX="6" refY="6" >
      <circle fill="#fff" cx="6" cy="6" r="2" stroke="context-stroke" stroke-width="2"/>
    </marker>
  </defs>

  <text x="10" y="645" font-size="10"  fill="#fff" style="font-weight: bold">Designer and Creator: Shakiba Moshiri, 2019-08-02</text>
<!--<path fill="none" stroke="#000" stroke-width="3" d="M60,50 v140 q0" marker-start="url(#diamond)" marker-end="url(#arrowhead)"></path>-->
</svg>