<svg xmlns="http://www.w3.org/2000/svg" viewBox="0 0 500 650" xmlns:xlink="http://www.w3.org/1999/xlink" width="500" height="650" font-family="Montserrat">
  <rect x="0" y="0" width="500" height="650" fill="#000"></rect>

  <g class="title">
    <rect x="0" y="35" width="500" height="40" fill="#fe0"></rect>
    <text x="250" y="65" font-size="25" text-anchor="middle" fill="#000" style="font-weight: bold">Team Organization</text>
  </g>
  
  <g transform="translate(100,130)">
    <circle cx="0" cy="0" r="20" fill="#f80"></circle>
    <circle cx="50" cy="0" r="20" fill="#f80"></circle>
    <circle cx="50" cy="50" r="20" fill="#f80"></circle>
    <text x="150" y="0" font-size="25" font-weight="bold" fill="#fff">Front-end Team</text>
    <line x1="-50" x2="350" y1="100" y2="100" stroke="#fff"></line>
  </g>
  <g transform="translate(100,270)">
    <circle cx="0" cy="0" r="20" fill="#0f8"></circle>
    <circle cx="50" cy="0" r="20" fill="#0f0"></circle>
    <circle cx="50" cy="50" r="20" fill="#0f0"></circle>
    <text x="150" y="0" font-size="25" font-weight="bold" fill="#fff">Back-end Team</text>
    <line x1="-50" x2="350" y1="100" y2="100" stroke="#fff"></line>
    
  </g>
  <g transform="translate(100,410)">
    <circle cx="0" cy="0" r="20" fill="#80f"></circle>
    <circle cx="50" cy="0" r="20" fill="#80f"></circle>
    <circle cx="50" cy="50" r="20" fill="#80f"></circle>
    <text x="150" y="0" font-size="25" font-weight="bold" fill="#fff">Database</text>
  </g>
  <g transform="translate(0,550)">
    <rect x="70" y="15" width="350" height="50" rx="25" fill="#fff"></rect>
    <text x="250" y="0" font-size="20" fill="#fff" font-weight="bold" text-anchor="middle">Organizing Team Around Job Function</text>
    <text x="250" y="50" font-size="25" font-weight="bold" text-anchor="middle">Incidental Coupled Team</text>
  </g>
  <defs>
    <marker id="arrowhead" markerWidth="10" markerHeight="7" 
            refX="0" refY="3.5" orient="auto">
      <polygon fill="#000" points="0 0, 5 3.5, 0 7" />
    </marker>
    <marker id="diamond" markerWidth="12" markerHeight="12" refX="6" refY="6" >
      <circle fill="#000" cx="6" cy="6" r="2" stroke="context-stroke" stroke-width="2"/>
    </marker>
  </defs>

  <text x="10" y="645" font-size="10"  fill="#000" style="font-weight: bold">Designer and Creator: Shakiba Moshiri, 2019-07-28</text>
<!--<path fill="none" stroke="#000" stroke-width="3" d="M60,50 v140 q0,30 30,30 h330 a25,25 0 0,1 0,70 h-330 a25,25 0 0,0 0,70 h330 q30,0 30,30 v100" marker-start="url(#diamond)" marker-end="url(#arrowhead)"></path>-->
</svg>