<svg xmlns="http://www.w3.org/2000/svg" viewBox="0 0 500 650" xmlns:xlink="http://www.w3.org/1999/xlink" width="500" height="650" font-family="Montserrat">
  <rect x="0" y="0" width="500" height="650" fill="#0cf"></rect>
  
  <rect x="0" y="0" width="500" height="250" fill="#fe0"></rect>
  <text x="250" y="65" font-size="40" text-anchor="middle" fill="#000">nodepost</text>
  <text x="250" y="115" font-size="25" text-anchor="middle" fill="#000">A Static Distributed Blogging System</text>
  <text x="250" y="165" font-size="25" text-anchor="middle" fill="#000">Setup &amp; Deployment Time:</text>
  <text x="250" y="215" font-size="25" text-anchor="middle" fill="#000">One Minute</text>

  

  <rect x="0" y="280" width="500" height="50" fill="#fe0"></rect>
  <text x="250" y="315" font-size="30" text-anchor="middle"  fill="#000">nodepost.ir</text>

  <g id="distributing" transform="translate(0,0)">
    <circle cx="250" cy="500" stroke="#000" stroke-width="1" r="50" fill="#fe0" ></circle>
    <path stroke="#000" fill="#fff" d="M250,450 v-30 a30,30 0 1,1 1,0.1"></path>
    <path stroke="#000" fill="#fff" d="M250,450 v-30 a30,30 0 1,1 1,0.1" transform="rotate(72,250,500)"></path>
    <path stroke="#000" fill="#fff" d="M250,450 v-30 a30,30 0 1,1 1,0.1" transform="rotate(144,250,500)"></path>
    <path stroke="#000" fill="#fff" d="M250,450 v-30 a30,30 0 1,1 1,0.1" transform="rotate(216,250,500)"></path>
    <path stroke="#000" fill="#fff" d="M250,450 v-30 a30,30 0 1,1 1,0.1" transform="rotate(288,250,500)"></path>
    <text x="250" y="510" font-size="25" text-anchor="middle"  fill="#000">jsfun.ir</text>
    <text x="20" y="390" font-size="25"  fill="#000">Sample Blog:</text>
  </g>

  <defs>
    <marker id="arrowhead" markerWidth="10" markerHeight="7" 
            refX="0" refY="3.5" orient="auto">
      <polygon points="0 0, 5 3.5, 0 7" />
    </marker>
    <marker id="diamond" markerWidth="12" markerHeight="12" refX="6" refY="6" >
      <circle cx="6" cy="6" r="2" stroke="context-stroke" stroke-width="2"/>
    </marker>
  </defs>

  <text x="10" y="645" font-size="10"  fill="#000" >Designer and Creator: Shakiba Moshiri, 2019-06-16-08:41:19</text>
  <!--
 <path id="circle" fill="none" stroke="none" stroke-width="0" d="M50,250 a200,200 0 1,1 0,0.1"></path>
 <text font-size="60" word-spacing="30">
  <textPath href="#circle">Scalable Vector Graphic for the Web</textPath>
 </text>
-->
</svg>