<svg xmlns="http://www.w3.org/2000/svg" viewBox="0 0 500 650" xmlns:xlink="http://www.w3.org/1999/xlink" width="500" height="650" font-family="Montserrat">
  <rect x="0" y="0" width="500" height="650" fill="#000"></rect>

  <g class="title">
    <rect x="0" y="0" width="500" height="325" fill="#fe0"></rect>
    <text x="250" y="140" font-size="30" text-anchor="middle" fill="#000" style="font-weight: bold">Micro Front-end Architecture</text>
    <text x="250" y="180" font-size="30" text-anchor="middle" fill="#000" style="font-weight: bold">MFA</text>
    <text x="250" y="210" font-size="20" text-anchor="middle" fill="#000" style="font-weight: bold">separate front-end repositories per component</text>
  </g>
  
    <g class="title" transform="translate(0,320)">
<!--    <rect x="0" y="0" width="500" height="325" fill="#fe0"></rect>-->
    <text x="250" y="140" font-size="30" text-anchor="middle" fill="#fff" style="font-weight: bold">Back-end for Front-end</text>
    <text x="250" y="180" font-size="30" text-anchor="middle" fill="#fff" style="font-weight: bold">BFF</text>
    <text x="250" y="210" font-size="20" text-anchor="middle" fill="#fff" style="font-weight: bold">separate back-end services per client</text>
  </g>
  
  
  
  <defs>
    <marker id="arrowhead" markerWidth="10" markerHeight="7" 
            refX="0" refY="3.5" orient="auto">
      <polygon fill="#000" points="0 0, 5 3.5, 0 7" />
    </marker>
    <marker id="diamond" markerWidth="12" markerHeight="12" refX="6" refY="6" >
      <circle fill="#000" cx="6" cy="6" r="2" stroke="context-stroke" stroke-width="2"/>
    </marker>
  </defs>

  <text x="10" y="645" font-size="10"  fill="#fff" >Designer and Creator: Shakiba Moshiri, 2019-06-29</text>
<!--
<path fill="none" stroke="#000" stroke-width="3" d="M60,50 v140 q0,30 30,30 h330 a25,25 0 0,1 0,70 h-330 a25,25 0 0,0 0,70 h330 q30,0 30,30 v100" marker-start="url(#diamond)" marker-end="url(#arrowhead)"></path>
MFA
separate front-end repositories per component
separate back-end services per client
-->
</svg>