<svg xmlns="http://www.w3.org/2000/svg" viewBox="0 0 500 650" xmlns:xlink="http://www.w3.org/1999/xlink" width="500" height="650" font-family="Montserrat">
  <rect x="0" y="0" width="500" height="650" fill="#fd0"></rect>

  <g class="title" >
    <rect x="0" y="35" width="500" height="40" fill="#000"></rect>
    <text x="250" y="65" font-size="25" text-anchor="middle" fill="#fff" font-weight="bold">The World of JavaScript</text>
  </g>

  <g transform="translate(0,130)" font-weight="bold" font-size="30" fill="000" text-anchor="middle">
    <text x="245" y="30" >JavaScript in Reality</text>
<!--    <text x="245" y="70" fill="#f00" >Microsoft vs. Netscape</text>-->
  </g>
  
  <g transform="translate(0,220)" font-weight="bold" font-size="30" fill="000" text-anchor="middle">
    <text x="245" y="30" >before ES6</text>
    <text x="245" y="70" fill="#f00" font-size="25" >implementation to standardization</text>
    <circle cx="100" cy="140" r="60" fill="#0c0"></circle>
    <text x="100" y="150" fill="#fff" font-size="25" >standard</text>
    <text x="250" y="130" font-size="25" >behind</text>
    <circle cx="400" cy="140" r="60" fill="#c00"></circle>
    <text x="400" y="150" fill="#fff" font-size="25" >browsers</text>
    <path fill="none" stroke="#000" stroke-width="3" d="M170,140 h150" marker-start="url(#diamond)" marker-end="url(#arrowhead)"></path>
  </g>
  
  <g transform="translate(0,420)" font-weight="bold" font-size="30" fill="#000" text-anchor="middle">
    <text x="245" y="30" >after ES6</text>
    <text x="245" y="70" fill="#f00" font-size="25">standardization to implementation</text>
    <text x="245" y="110" fill="#f00"></text>
    <circle cx="100" cy="140" r="60" fill="#c00"></circle>
    <text x="100" y="150" fill="#fff" font-size="25" >browsers</text>
    <text x="250" y="130" font-size="25" >behind</text>
    <circle cx="400" cy="140" r="60" fill="#0c0"></circle>
    <text x="400" y="150" fill="#fff" font-size="25" >standard</text>
    <path fill="none" stroke="#000" stroke-width="3" d="M170,140 h150" marker-start="url(#diamond)" marker-end="url(#arrowhead)"></path>
  </g>
  <defs>
    <marker id="arrowhead" markerWidth="10" markerHeight="7" 
            refX="0" refY="3.5" orient="auto">
      <polygon fill="#000" points="0 0, 5 3.5, 0 7" />
    </marker>
    <marker id="diamond" markerWidth="12" markerHeight="12" refX="6" refY="6" >
      <circle fill="#000" cx="6" cy="6" r="2" stroke="context-stroke" stroke-width="2"/>
    </marker>
  </defs>

  <text x="10" y="645" font-size="10"  fill="#000" font-weight="bold">Designer and Creator: Shakiba Moshiri, 2019-08-10</text>
<!--<path fill="none" stroke="#000" stroke-width="3" d="M60,50 v140 q0" marker-start="url(#diamond)" marker-end="url(#arrowhead)"></path>-->
</svg>