<svg xmlns="http://www.w3.org/2000/svg" viewBox="0 0 500 650" xmlns:xlink="http://www.w3.org/1999/xlink" width="500" height="650" font-family="Montserrat">
  <rect x="0" y="0" width="500" height="650" fill="#fd0"></rect>

  <g class="title" >
    <rect x="0" y="35" width="500" height="40" fill="#000"></rect>
    <text x="250" y="65" font-size="25" text-anchor="middle" fill="#fff" font-weight="bold">The World of JavaScript</text>
  </g>
  
  <g transform="translate(0,120)" font-weight="bold" font-size="30" fill="000" text-anchor="middle">
    <text x="245" y="30" >JavaScript</text>
    <text x="245" y="70" fill="#f00" >the implementation</text>
    <text x="245" y="110" fill="#f00" >of the language</text>
  </g>
  
  <g transform="translate(0,270)" font-weight="bold" font-size="30" fill="#000" text-anchor="middle">
    <text x="245" y="30" >ECMAScript</text>
    <text x="245" y="70" fill="#f00">the standardization of</text>
    <text x="245" y="110" fill="#f00">of the language</text>
  </g>
  
  <g transform="translate(60,420)" font-weight="bold" font-size="30" fill="#fff">
    <rect x="10" y="0" width="100" height="50" fill="#000"></rect>
    <text x="30" y="35" >ES1</text>
    <text x="30" y="80" fill="#000" >1997</text>
  </g>
  <g transform="translate(185,420)" font-weight="bold" font-size="30" fill="#fff">
    <rect x="10" y="0" width="100" height="50" fill="#000"></rect>
    <text x="30" y="35" >ES2</text>
    <text x="30" y="80" fill="#000" >1998</text>
  </g>
  <g transform="translate(310,420)" font-weight="bold" font-size="30" fill="#fff">
    <rect x="10" y="0" width="100" height="50" fill="#000"></rect>
    <text x="30" y="35" >ES3</text>
    <text x="30" y="80" fill="#000" >1999</text>
  </g>
 <g transform="translate(60,520)" font-weight="bold" font-size="30" fill="#fff">
    <rect x="10" y="0" width="100" height="50" fill="#000"></rect>
    <text x="30" y="35" >ES5</text>
    <text x="30" y="80" fill="#000" >2009</text>
  </g>
  <g transform="translate(185,520)" font-weight="bold" font-size="30" fill="#fff">
    <rect x="10" y="0" width="100" height="50" fill="#000"></rect>
    <text x="20" y="35" >ES5.1</text>
    <text x="30" y="80" fill="#000" >2011</text>
  </g>
  <g transform="translate(310,520)" font-weight="bold" font-size="30" fill="#fff">
    <rect x="10" y="0" width="100" height="50" fill="#000"></rect>
    <text x="30" y="35" >ES6</text>
    <text x="30" y="80" fill="#000" >2015</text>
  </g>
  <defs>
    <marker id="arrowhead" markerWidth="10" markerHeight="7" 
            refX="0" refY="3.5" orient="auto">
      <polygon fill="#000" points="0 0, 5 3.5, 0 7" />
    </marker>
    <marker id="diamond" markerWidth="12" markerHeight="12" refX="6" refY="6" >
      <circle fill="#000" cx="6" cy="6" r="2" stroke="context-stroke" stroke-width="2"/>
    </marker>
  </defs>

  <text x="10" y="645" font-size="10"  fill="#000" font-weight="bold">Designer and Creator: Shakiba Moshiri, 2019-08-11</text>
<!--<path fill="none" stroke="#000" stroke-width="3" d="M60,50 v140 q0" marker-start="url(#diamond)" marker-end="url(#arrowhead)"></path>-->
</svg>