<svg xmlns="http://www.w3.org/2000/svg" viewBox="0 0 500 650" xmlns:xlink="http://www.w3.org/1999/xlink" width="500" height="650" font-family="Montserrat">
  <rect x="0" y="0" width="500" height="650" fill="#fd0"></rect>

  <g class="title">
    <rect x="0" y="35" width="500" height="40" fill="#000"></rect>
    <text x="250" y="65" font-size="25" text-anchor="middle" fill="#fff" font-weight="bold">The World of JavaScript</text>
  </g>

  <g transform="translate(0,160)" font-weight="bold" font-size="30" fill="000" text-anchor="middle">

  </g>
  
  <g transform="translate(0,100)" font-size="30" fill="#000" text-anchor="middle" font-weight="bold">
    <text x="250" y="50" >Web browsers emerging</text>
    <text x="250" y="100" >Moving W3C to US</text>
    <text x="250" y="150" >Popularizing the web</text>
    <text x="250" y="200" >First compatible browser</text>
    <text x="250" y="250" fill="#f00">Mosaic and Marc Andreessen</text>
    <text x="250" y="300" >Microsoft Internet Explorer</text>
  </g>
  
  <g transform="translate(0,520)" font-weight="bold" font-size="30" fill="#000" text-anchor="middle">
    <circle cx="100" cy="20" r="70" fill="#000"></circle>
    <text x="100" y="35" font-size="40" fill="#fff" text-anchor="middle" font-weight="bold">1992</text>
    <circle cx="250" cy="20" r="70" fill="#000"></circle>
    <text x="250" y="35" font-size="40" fill="#fff" text-anchor="middle" font-weight="bold">1993</text>
  <circle cx="400" cy="20" r="70" fill="#000"></circle>
    <text x="400" y="35" font-size="40" fill="#fff" text-anchor="middle" font-weight="bold">1994</text>
  </g>
  <defs>
    <marker id="arrowhead" markerWidth="10" markerHeight="7" 
            refX="0" refY="3.5" orient="auto">
      <polygon fill="#000" points="0 0, 5 3.5, 0 7" />
    </marker>
    <marker id="diamond" markerWidth="12" markerHeight="12" refX="6" refY="6" >
      <circle fill="#000" cx="6" cy="6" r="2" stroke="context-stroke" stroke-width="2"/>
    </marker>
  </defs>

  <text x="10" y="645" font-size="10"  fill="#000" font-weight="bold">Designer and Creator: Shakiba Moshiri, 2019-08-09</text>
<!--<path fill="none" stroke="#000" stroke-width="3" d="M60,50 v140 q0" marker-start="url(#diamond)" marker-end="url(#arrowhead)"></path>-->
</svg>